<svg width="300" height="78" viewBox="0 0 300 78" fill="none" xmlns="http://www.w3.org/2000/svg">
<path d="M100.018 27.8151C101.384 27.8151 102.554 28.0528 103.529 28.5342C104.503 29.0156 105.299 29.6456 105.928 30.4301C106.552 31.2146 107.01 32.118 107.301 33.1343C107.592 34.1506 107.734 35.2025 107.734 36.2723V49.3594H102.501V37.7581C102.501 37.146 102.459 36.5101 102.37 35.8385C102.281 35.1728 102.091 34.5666 101.806 34.0258C101.515 33.4909 101.117 33.0451 100.606 32.6945C100.095 32.3438 99.4238 32.1715 98.5802 32.1715C97.7367 32.1715 97.0714 32.3438 96.4892 32.6945C95.9071 33.0451 95.4259 33.4968 95.0517 34.0495C94.6715 34.6023 94.3982 35.2204 94.226 35.9038C94.0537 36.5873 93.9646 37.2648 93.9646 37.9305V49.3594H88.7311V36.7121C88.7311 35.4046 88.4163 34.3229 87.7926 33.4612C87.1688 32.6053 86.1887 32.1774 84.8521 32.1774C84.0679 32.1774 83.3848 32.3438 82.8027 32.6767C82.2205 33.0095 81.7512 33.4374 81.3829 33.9604C81.0205 34.4834 80.7413 35.0896 80.5572 35.7731C80.3671 36.4566 80.2721 37.146 80.2721 37.8473V49.3594H75.0386V28.4272H80.0107V31.7852H80.0998C80.3315 31.2622 80.6463 30.7689 81.0384 30.2993C81.4304 29.8358 81.8938 29.4138 82.4344 29.0334C82.969 28.6531 83.5868 28.3559 84.2877 28.1419C84.9828 27.922 85.755 27.8151 86.5985 27.8151C88.2262 27.8151 89.5806 28.1776 90.6558 28.9086C91.731 29.6337 92.5567 30.5965 93.1389 31.7852C93.8339 30.5074 94.7665 29.5267 95.9308 28.8432C97.0952 28.1598 98.4614 27.821 100.03 27.821L100.018 27.8151Z" fill="#231F20"/>
<path d="M130.183 39.1547V39.8501C130.183 40.0819 130.165 40.3137 130.141 40.5454H114.227C114.287 41.3002 114.483 41.9897 114.815 42.6196C115.148 43.2437 115.593 43.7845 116.146 44.2303C116.698 44.6819 117.322 45.0385 118.023 45.3C118.718 45.5615 119.449 45.6923 120.203 45.6923C121.51 45.6923 122.615 45.4546 123.518 44.9732C124.421 44.4918 125.157 43.8321 125.74 42.9881L129.227 45.7815C127.165 48.5748 124.171 49.9714 120.245 49.9714C118.617 49.9714 117.12 49.7159 115.754 49.2107C114.388 48.6996 113.205 47.9805 112.202 47.0533C111.198 46.1262 110.413 44.9791 109.849 43.63C109.285 42.2809 109 40.7416 109 39.0299C109 37.3182 109.285 35.8087 109.849 34.4298C110.413 33.051 111.192 31.8742 112.184 30.8995C113.17 29.9248 114.34 29.17 115.694 28.6292C117.049 28.0943 118.504 27.8209 120.078 27.8209C121.534 27.8209 122.876 28.0587 124.112 28.5401C125.348 29.0215 126.417 29.7347 127.314 30.6796C128.217 31.6246 128.918 32.8014 129.429 34.2099C129.939 35.6185 130.189 37.2707 130.189 39.1607L130.183 39.1547ZM124.95 36.8012C124.95 36.1355 124.854 35.4937 124.664 34.8815C124.474 34.2694 124.177 33.7345 123.773 33.2649C123.363 32.8014 122.853 32.4269 122.223 32.1536C121.599 31.8802 120.863 31.7375 120.019 31.7375C118.451 31.7375 117.12 32.213 116.027 33.152C114.94 34.097 114.334 35.3094 114.215 36.7952H124.938L124.95 36.8012Z" fill="#231F20"/>
<path d="M130.617 32.6171V28.4271H134.276V22.365H139.42V28.4271H144.654V32.6171H139.42V42.3462C139.42 43.2793 139.587 44.046 139.925 44.6582C140.258 45.2703 141.006 45.5734 142.171 45.5734C142.521 45.5734 142.895 45.5378 143.305 45.4664C143.715 45.3951 144.072 45.2881 144.392 45.1396L144.565 49.2404C144.101 49.4128 143.549 49.5495 142.907 49.6564C142.266 49.7575 141.66 49.811 141.078 49.811C139.682 49.811 138.547 49.6148 137.68 49.2226C136.806 48.8303 136.117 48.2895 135.607 47.606C135.096 46.9225 134.751 46.138 134.561 45.2525C134.371 44.3669 134.276 43.416 134.276 42.3938V32.6231H130.617V32.6171Z" fill="#231F20"/>
<path d="M146.05 28.4272H151.063V31.9159H151.152C151.735 30.6916 152.548 29.705 153.594 28.9502C154.639 28.1954 155.863 27.8151 157.253 27.8151C157.455 27.8151 157.675 27.821 157.907 27.8388C158.138 27.8507 158.34 27.8923 158.518 27.9458V32.742C158.168 32.6529 157.871 32.5934 157.621 32.5697C157.372 32.5459 157.134 32.5281 156.903 32.5281C155.709 32.5281 154.752 32.748 154.028 33.1818C153.303 33.6157 152.733 34.1387 152.329 34.7508C151.919 35.363 151.645 35.987 151.503 36.6289C151.354 37.2708 151.283 37.776 151.283 38.1563V49.3653H146.05V28.4272Z" fill="#231F20"/>
<path d="M157.996 38.81C157.996 37.1518 158.293 35.6482 158.893 34.2931C159.487 32.9381 160.295 31.7851 161.31 30.8282C162.326 29.8713 163.532 29.1284 164.928 28.6054C166.324 28.0824 167.803 27.8209 169.377 27.8209C170.952 27.8209 172.431 28.0824 173.827 28.6054C175.223 29.1284 176.429 29.8713 177.444 30.8282C178.46 31.7851 179.268 32.944 179.862 34.2931C180.456 35.6482 180.753 37.1518 180.753 38.81C180.753 40.4682 180.456 41.9778 179.862 43.3447C179.268 44.7117 178.46 45.8825 177.444 46.8572C176.429 47.8319 175.223 48.5926 173.827 49.1453C172.431 49.6981 170.952 49.9714 169.377 49.9714C167.803 49.9714 166.324 49.6921 164.928 49.1453C163.532 48.5926 162.326 47.8319 161.31 46.8572C160.295 45.8825 159.487 44.7117 158.893 43.3447C158.299 41.9778 157.996 40.4682 157.996 38.81ZM163.312 38.81C163.312 39.6242 163.437 40.4385 163.681 41.2527C163.924 42.0669 164.298 42.792 164.791 43.4339C165.285 44.0757 165.908 44.5987 166.669 45.0029C167.423 45.413 168.326 45.615 169.372 45.615C170.417 45.615 171.32 45.413 172.074 45.0029C172.829 44.5987 173.453 44.0757 173.952 43.4339C174.445 42.792 174.813 42.0669 175.062 41.2527C175.312 40.4385 175.431 39.6242 175.431 38.81C175.431 37.9958 175.306 37.1875 175.062 36.3911C174.813 35.5947 174.445 34.8696 173.952 34.2337C173.458 33.5918 172.835 33.0807 172.074 32.6825C171.32 32.2903 170.417 32.0941 169.372 32.0941C168.326 32.0941 167.423 32.2903 166.669 32.6825C165.914 33.0748 165.29 33.5918 164.791 34.2337C164.293 34.8756 163.924 35.5947 163.681 36.3911C163.431 37.1934 163.312 37.9958 163.312 38.81Z" fill="#231F20"/>
<path d="M189.343 32.6171V28.4271H193.002V22.365H198.147V28.4271H203.38V32.6171H198.147V42.3462C198.147 43.2793 198.313 44.046 198.646 44.6582C198.978 45.2703 199.727 45.5734 200.891 45.5734C201.242 45.5734 201.616 45.5378 202.026 45.4664C202.436 45.3951 202.798 45.2881 203.119 45.1396L203.291 49.2404C202.828 49.4128 202.275 49.5495 201.634 49.6564C200.992 49.7575 200.38 49.811 199.804 49.811C198.408 49.811 197.273 49.6148 196.406 49.2226C195.533 48.8303 194.844 48.2895 194.333 47.606C193.822 46.9225 193.477 46.138 193.287 45.2525C193.097 44.3669 193.002 43.416 193.002 42.3938V32.6231H189.343V32.6171Z" fill="#231F20"/>
<path d="M204.776 28.4272H209.79V31.9159H209.879C210.461 30.6916 211.275 29.705 212.32 28.9502C213.366 28.1954 214.59 27.8151 215.98 27.8151C216.182 27.8151 216.401 27.821 216.633 27.8388C216.865 27.8507 217.067 27.8923 217.245 27.9458V32.742C216.894 32.6529 216.597 32.5934 216.348 32.5697C216.098 32.5459 215.861 32.5281 215.629 32.5281C214.435 32.5281 213.479 32.748 212.754 33.1818C212.029 33.6157 211.459 34.1387 211.055 34.7508C210.645 35.363 210.372 35.987 210.229 36.6289C210.081 37.2708 210.01 37.776 210.01 38.1563V49.3653H204.776V28.4272Z" fill="#231F20"/>
<path d="M232.066 46.7027H231.935C231.413 47.6358 230.569 48.3966 229.405 48.9909C228.24 49.5852 226.922 49.8883 225.437 49.8883C224.593 49.8883 223.714 49.7814 222.799 49.5615C221.884 49.3415 221.041 48.979 220.269 48.4679C219.496 47.9568 218.861 47.2911 218.35 46.4591C217.839 45.633 217.589 44.6048 217.589 43.3864C217.589 41.8174 218.029 40.5693 218.92 39.6362C219.805 38.7091 220.946 37.9959 222.342 37.4966C223.738 37.0033 225.282 36.6765 226.987 36.516C228.686 36.3555 230.349 36.2783 231.977 36.2783V35.7553C231.977 34.4477 231.502 33.479 230.563 32.8549C229.619 32.2309 228.49 31.9159 227.183 31.9159C226.078 31.9159 225.015 32.1477 223.999 32.6113C222.983 33.0748 222.14 33.6454 221.468 34.311L218.766 31.1255C219.96 30.02 221.332 29.1939 222.882 28.6412C224.439 28.0885 226.013 27.8151 227.611 27.8151C229.47 27.8151 231.003 28.0766 232.209 28.5996C233.415 29.1226 234.365 29.8061 235.066 30.65C235.761 31.4939 236.248 32.4389 236.527 33.4849C236.801 34.5309 236.943 35.577 236.943 36.623V49.3594H232.06V46.6968L232.066 46.7027ZM231.977 39.8086H230.801C229.957 39.8086 229.072 39.8442 228.139 39.9155C227.207 39.9869 226.351 40.1473 225.567 40.3969C224.783 40.6466 224.13 40.9913 223.607 41.443C223.084 41.8946 222.823 42.5127 222.823 43.2973C222.823 43.7905 222.93 44.2066 223.15 44.5394C223.369 44.8722 223.649 45.1456 223.999 45.3477C224.35 45.5498 224.742 45.6983 225.175 45.7815C225.609 45.8647 226.048 45.9123 226.482 45.9123C228.282 45.9123 229.648 45.4309 230.581 44.474C231.508 43.5172 231.977 42.2037 231.977 40.5515V39.8086Z" fill="#231F20"/>
<path d="M239.438 28.4272H244.41V31.7852H244.499C244.963 30.7391 245.77 29.8179 246.917 29.0156C248.063 28.2192 249.424 27.8151 250.992 27.8151C252.358 27.8151 253.529 28.0528 254.503 28.5342C255.477 29.0156 256.273 29.6456 256.903 30.4301C257.526 31.2146 257.984 32.118 258.275 33.1343C258.566 34.1506 258.709 35.2025 258.709 36.2723V49.3594H253.475V37.7581C253.475 37.146 253.434 36.5101 253.344 35.8385C253.255 35.1728 253.065 34.5666 252.78 34.0258C252.489 33.4909 252.091 33.0451 251.58 32.6945C251.069 32.3438 250.398 32.1715 249.554 32.1715C248.711 32.1715 247.986 32.3379 247.374 32.6707C246.762 33.0035 246.263 33.4314 245.871 33.9544C245.479 34.4775 245.182 35.0837 244.98 35.7671C244.778 36.4506 244.677 37.14 244.677 37.8413V49.3534H239.444V28.4272H239.438Z" fill="#231F20"/>
<path d="M273.755 34.0079C273.292 33.3958 272.651 32.8668 271.837 32.4151C271.023 31.9635 270.138 31.7376 269.175 31.7376C268.332 31.7376 267.56 31.91 266.865 32.2606C266.17 32.6113 265.819 33.1937 265.819 34.0079C265.819 34.8222 266.205 35.3987 266.972 35.7315C267.738 36.0643 268.867 36.409 270.352 36.7537C271.136 36.9261 271.926 37.1638 272.728 37.4491C273.524 37.7403 274.254 38.1266 274.908 38.6021C275.561 39.0835 276.09 39.6778 276.5 40.391C276.904 41.1042 277.112 41.966 277.112 42.9882C277.112 44.266 276.874 45.3536 276.393 46.2392C275.912 47.1247 275.276 47.8438 274.474 48.3966C273.672 48.9493 272.746 49.3475 271.682 49.5971C270.619 49.8467 269.526 49.9656 268.391 49.9656C266.764 49.9656 265.178 49.6684 263.639 49.0682C262.1 48.4738 260.817 47.6239 259.802 46.5185L263.247 43.2913C263.829 44.0461 264.584 44.6701 265.516 45.1694C266.443 45.6627 267.477 45.9123 268.611 45.9123C268.991 45.9123 269.377 45.8707 269.764 45.7815C270.156 45.6924 270.518 45.5557 270.857 45.3655C271.189 45.1753 271.457 44.9198 271.664 44.6048C271.872 44.2898 271.967 43.8916 271.967 43.428C271.967 42.5543 271.569 41.9303 270.767 41.5559C269.966 41.1755 268.772 40.8011 267.174 40.4207C266.389 40.2484 265.623 40.0225 264.887 39.7432C264.144 39.4698 263.485 39.1013 262.902 38.6556C262.32 38.2039 261.857 37.6452 261.506 36.9736C261.156 36.308 260.984 35.4759 260.984 34.4893C260.984 33.3245 261.221 32.326 261.702 31.4821C262.184 30.6381 262.813 29.9487 263.597 29.4079C264.382 28.873 265.267 28.4688 266.259 28.2073C267.245 27.9458 268.267 27.8151 269.312 27.8151C270.821 27.8151 272.3 28.0766 273.738 28.5996C275.175 29.1226 276.316 29.9249 277.159 31.0006L273.755 34.0079Z" fill="#231F20"/>
<path d="M278.377 21.319C278.377 20.4751 278.686 19.7441 279.316 19.1141C279.939 18.49 280.729 18.175 281.692 18.175C282.654 18.175 283.456 18.4722 284.11 19.0665C284.763 19.6609 285.09 20.4097 285.09 21.3131C285.09 22.2165 284.763 22.9653 284.11 23.5596C283.456 24.154 282.648 24.4511 281.692 24.4511C280.735 24.4511 279.939 24.1421 279.316 23.5121C278.692 22.8881 278.377 22.1511 278.377 21.3071V21.319ZM279.12 28.4272H284.353V49.3653H279.12V28.4272Z" fill="#231F20"/>
<path d="M285.963 32.6171V28.4271H289.622V22.365H294.767V28.4271H300V32.6171H294.767V42.3462C294.767 43.2793 294.933 44.046 295.266 44.6582C295.598 45.2703 296.347 45.5734 297.511 45.5734C297.861 45.5734 298.236 45.5378 298.646 45.4664C299.055 45.3951 299.418 45.2881 299.739 45.1396L299.911 49.2404C299.448 49.4128 298.895 49.5495 298.254 49.6564C297.612 49.7575 297 49.811 296.424 49.811C295.028 49.811 293.893 49.6148 293.026 49.2226C292.153 48.8303 291.464 48.2895 290.953 47.606C290.442 46.9225 290.097 46.138 289.907 45.2525C289.717 44.3669 289.622 43.416 289.622 42.3938V32.6231H285.963V32.6171Z" fill="#231F20"/>
<path d="M43.4418 49.4426H36.5926V38.0791C36.5926 37.4967 36.551 36.932 36.4679 36.3853C36.3847 35.8385 36.2302 35.3749 36.0104 34.9827C35.7847 34.5904 35.4877 34.2814 35.1135 34.0436C34.7392 33.8059 34.2402 33.687 33.6284 33.687C33.0165 33.687 32.5353 33.8118 32.1017 34.0615C31.668 34.3111 31.3057 34.6439 31.0146 35.0659C30.7235 35.4819 30.5037 35.9633 30.3671 36.5101C30.2245 37.0509 30.1592 37.6155 30.1592 38.2039V49.4426H23.31V37.5739C23.31 36.3793 23.0723 35.4284 22.6031 34.733C22.1278 34.0377 21.3793 33.687 20.3457 33.687C19.2586 33.687 18.4151 34.1209 17.8211 34.9827C17.2211 35.8444 16.9241 36.9023 16.9241 38.1564V49.4367H10.0333V28.6293H16.6746V31.5118H16.7577C17.0072 31.0661 17.3221 30.6322 17.6963 30.2162C18.0706 29.8001 18.522 29.4317 19.0507 29.1107C19.5794 28.7898 20.1735 28.5342 20.8269 28.3381C21.4803 28.142 22.1991 28.0469 22.9773 28.0469C24.4802 28.0469 25.7574 28.3559 26.797 28.9681C27.8425 29.5802 28.6563 30.4598 29.2384 31.6009C29.9335 30.5133 30.8245 29.6516 31.9116 29.0097C32.9987 28.3678 34.3174 28.0469 35.8798 28.0469C37.2995 28.0469 38.4876 28.3024 39.4499 28.8195C40.4123 29.3366 41.1845 30.0022 41.7667 30.8224C42.3488 31.6425 42.7765 32.5638 43.0379 33.58C43.3052 34.5963 43.4359 35.5948 43.4359 36.5695V49.4426H43.4418Z" fill="#231F20"/>
<path d="M26.7316 14.9716C39.836 14.9716 50.493 25.6338 50.493 38.7447C50.493 51.8555 39.836 62.5177 26.7316 62.5177C13.6272 62.5177 2.97018 51.8555 2.97018 38.7447C2.97018 25.6338 13.6272 14.9716 26.7316 14.9716ZM26.7316 12C11.9698 12 0 23.9757 0 38.7447C0 53.5137 11.9698 65.4893 26.7316 65.4893C41.4934 65.4893 53.4632 53.5137 53.4632 38.7447C53.4632 23.9757 41.4934 12 26.7316 12Z" fill="#231F20"/>
</svg>
